<svg xmlns="http://www.w3.org/2000/svg" viewBox="0 0 1340 320">
  <defs>
    <linearGradient id="bg" x1="0" y1="0" x2="1" y2="1">
      <stop offset="0" stop-color="#16344e"/>
      <stop offset="1" stop-color="#0a1828"/>
    </linearGradient>
  </defs>
  <g transform="translate(24,32) scale(0.5)">
    <rect width="512" height="512" rx="112" fill="url(#bg)"/>
    <g transform="rotate(-28 256 256)">
      <ellipse cx="256" cy="256" rx="196" ry="78" fill="none" stroke="#00b4ff" stroke-width="13" opacity="0.85"/>
    </g>
    <g transform="translate(56,48) scale(0.78)">
      <path d="M256 64c-13 0-24 11-24 24v118L60 312v44l172-54v104l-48 36v36l72-22 72 22v-36l-48-36V302l172 54v-44L280 206V88c0-13-11-24-24-24z" fill="#ffffff"/>
    </g>
    <g transform="rotate(-28 256 256)">
      <circle cx="60" cy="256" r="18" fill="#00b4ff"/><circle cx="60" cy="256" r="7" fill="#ffffff"/>
      <circle cx="452" cy="256" r="18" fill="#00b4ff"/><circle cx="452" cy="256" r="7" fill="#ffffff"/>
    </g>
  </g>
  <text x="328" y="202" font-family="Segoe UI, DejaVu Sans, sans-serif" font-size="120" font-weight="700" fill="#ffffff">GSX<tspan font-weight="300" fill="#00b4ff"> Integrator</tspan></text>
</svg>
